<?xml version="1.0" standalone="no"?>
<!DOCTYPE svg PUBLIC "-//W3C//DTD SVG 20010904//EN"
 "http://www.w3.org/TR/2001/REC-SVG-20010904/DTD/svg10.dtd">
<svg version="1.0" xmlns="http://www.w3.org/2000/svg"
 width="460.000000pt" height="460.000000pt" viewBox="0 0 460.000000 460.000000"
 preserveAspectRatio="xMidYMid meet">

<g transform="translate(0.000000,460.000000) scale(0.100000,-0.100000)"
fill="#000000" stroke="none">
<path d="M1275 4592 c-5 -4 -11 -27 -13 -52 -11 -192 -20 -269 -31 -295 -17
-39 -30 -735 -13 -735 6 0 13 37 16 88 13 186 28 318 39 331 6 7 12 49 12 95
0 63 4 84 16 93 18 13 31 93 16 93 -5 0 -6 25 -2 57 10 78 12 89 24 112 6 11
11 40 11 65 0 25 5 48 10 51 6 3 10 17 10 29 0 15 7 26 20 29 25 7 17 33 -13
41 -31 8 -90 7 -102 -2z"/>
<path d="M1715 4590 c-63 -4 -80 -7 -55 -11 l35 -6 -42 -1 c-23 -1 -43 2 -45
7 -2 6 -41 6 -98 2 -81 -7 -86 -8 -35 -10 33 -1 77 -4 97 -7 32 -6 35 -8 22
-21 -19 -19 -18 -32 4 -40 9 -4 20 -11 25 -17 5 -7 10 -6 17 4 14 22 28 2 31
-45 4 -52 -5 -65 -42 -65 -16 0 -30 -6 -31 -12 0 -7 -2 -17 -2 -23 -1 -5 -8
-25 -15 -42 -12 -29 -18 -33 -52 -33 l-39 0 0 -42 c0 -24 -7 -52 -15 -62 -22
-29 -19 -36 15 -36 28 0 30 -3 30 -35 0 -19 5 -35 10 -35 6 0 10 -13 10 -29 0
-17 5 -33 10 -36 6 -4 10 8 10 29 0 32 3 36 25 36 24 0 25 -2 25 -69 l0 -69
40 1 c23 1 44 7 48 13 9 14 62 24 62 13 0 -19 17 -7 27 19 l11 27 1 -27 c1
-15 -3 -30 -9 -33 -5 -3 -10 -19 -10 -35 0 -15 -6 -30 -12 -33 -7 -2 -10 -8
-6 -12 18 -20 42 30 73 155 4 14 10 34 15 45 4 11 14 43 22 70 12 41 18 50 36
49 12 0 22 5 22 13 0 7 5 13 10 13 6 0 10 -9 10 -19 0 -11 4 -21 9 -23 5 -1
11 -22 15 -45 6 -49 26 -85 43 -79 8 4 10 -6 7 -33 -3 -28 1 -45 16 -64 11
-14 26 -57 33 -94 8 -42 18 -67 25 -66 7 2 12 -4 12 -12 0 -8 4 -15 8 -15 20
0 52 -38 46 -54 -3 -9 -1 -16 4 -16 6 0 13 -8 15 -17 3 -10 3 2 1 27 -3 33 -2
40 5 25 5 -11 10 -14 10 -7 2 22 21 13 21 -10 0 -27 16 -55 25 -46 4 4 -2 33
-13 65 -18 51 -42 158 -42 187 0 6 11 -2 25 -17 33 -34 36 -34 25 3 -5 17 -7
30 -5 30 1 0 18 -24 36 -52 18 -29 39 -57 46 -61 7 -4 13 -16 13 -25 0 -10 7
-27 15 -39 9 -13 11 -23 5 -25 -17 -5 28 -48 50 -48 22 0 27 -16 8 -23 -7 -3
-3 -6 10 -6 12 -1 22 -4 22 -8 0 -5 17 -26 38 -47 20 -22 37 -42 38 -45 3 -18
17 -40 24 -36 4 2 18 -16 30 -40 13 -25 28 -45 33 -45 13 0 32 -25 59 -78 12
-24 30 -48 40 -53 10 -5 18 -16 18 -24 0 -7 7 -20 15 -29 9 -8 16 -18 15 -21
-1 -17 1 -19 8 -7 8 12 30 -21 48 -73 6 -18 8 -17 19 10 l13 30 7 -28 c4 -15
10 -26 13 -23 3 3 13 -4 23 -15 13 -15 19 -17 25 -7 5 7 9 120 9 250 0 130 3
234 6 230 11 -13 49 -115 49 -131 0 -21 40 -199 52 -230 5 -13 11 -21 14 -18
3 3 3 11 -2 18 -4 7 -9 69 -10 138 -3 118 -8 159 -33 271 -10 43 -10 42 -6
-20 3 -36 8 -77 11 -92 4 -17 2 -28 -4 -28 -6 0 -13 24 -17 53 -3 28 -13 77
-20 107 -25 98 -55 238 -55 252 0 7 -14 58 -30 113 -17 55 -36 118 -42 140 -7
22 -20 55 -30 73 -10 18 -18 38 -18 45 0 18 -80 220 -94 237 -6 8 -20 32 -29
53 l-17 38 -418 -3 c-229 -2 -457 -5 -507 -8z m90 -158 c-3 -3 -11 0 -18 7 -9
10 -8 11 6 5 10 -3 15 -9 12 -12z m-70 -102 c-3 -5 -10 -10 -16 -10 -5 0 -9 5
-9 10 0 6 7 10 16 10 8 0 12 -4 9 -10z m102 -262 c-3 -7 -5 -2 -5 12 0 14 2
19 5 13 2 -7 2 -19 0 -25z m-54 -65 c-7 -3 -13 -12 -14 -21 0 -11 -2 -13 -6
-4 -6 15 17 46 26 36 3 -4 0 -9 -6 -11z m387 -213 c-20 -13 -33 -13 -25 0 3 6
14 10 23 10 15 0 15 -2 2 -10z m728 -600 c-2 -22 -7 -40 -13 -40 -9 0 -8 57 2
73 10 16 14 5 11 -33z"/>
<path d="M2704 4573 c39 -74 77 -170 138 -358 39 -120 50 -147 56 -141 2 3 -3
23 -12 46 -21 52 -20 60 4 60 11 0 20 -4 20 -10 0 -5 14 -25 30 -43 17 -19 30
-38 30 -42 0 -4 14 -25 31 -46 37 -47 169 -304 169 -329 0 -10 5 -22 10 -25
17 -11 11 -43 -9 -50 -11 -3 -21 -12 -24 -19 -4 -9 5 -13 31 -12 l36 1 14 -65
c8 -36 19 -75 25 -88 6 -14 7 -25 1 -30 -5 -4 -35 -30 -68 -57 -32 -27 -72
-67 -87 -88 -24 -34 -27 -42 -15 -51 8 -6 17 -24 19 -41 2 -16 4 -6 4 23 0 45
5 58 29 83 57 60 112 75 138 37 18 -26 26 -21 29 18 4 47 60 46 116 -2 35 -29
41 -15 11 23 -23 29 -26 49 -7 56 6 2 -9 8 -35 12 -26 4 -54 5 -61 2 -26 -10
-34 8 -49 97 -15 84 -14 90 3 107 19 19 19 19 -1 19 -25 0 -38 31 -52 120 -5
36 -14 74 -18 85 -5 11 -13 40 -19 65 -5 25 -14 63 -20 85 -5 22 -8 41 -6 43
12 12 45 -17 83 -71 23 -34 53 -78 67 -97 13 -19 29 -46 35 -60 6 -14 17 -32
24 -40 15 -17 67 -109 64 -113 -1 -1 6 -11 15 -22 10 -12 36 -59 58 -105 l40
-85 -5 -130 -6 -130 35 -55 c19 -30 35 -58 35 -63 0 -5 14 -28 31 -53 17 -25
42 -70 56 -102 14 -31 43 -86 63 -122 21 -36 43 -83 50 -105 7 -22 16 -44 20
-50 15 -19 79 -217 112 -343 32 -124 33 -131 33 -342 0 -203 -2 -221 -28 -325
-16 -60 -39 -139 -52 -175 -12 -36 -30 -85 -38 -110 -29 -88 -69 -186 -92
-230 -14 -25 -34 -70 -45 -100 -12 -30 -26 -60 -31 -66 -5 -6 -12 -28 -17 -50
-6 -28 -13 -39 -25 -38 -12 1 -17 -6 -17 -22 0 -13 -6 -24 -12 -24 -14 0 -58
-62 -58 -82 -1 -21 -26 -48 -43 -48 -9 0 -37 5 -61 12 -42 11 -44 13 -39 41 4
22 1 32 -11 39 -9 5 -14 14 -10 19 8 14 -17 209 -27 209 -4 0 -10 8 -12 18 -4
16 -5 16 -6 0 -1 -11 -9 -18 -22 -18 -19 0 -20 -5 -19 -72 2 -79 -5 -108 -25
-108 -7 0 -15 -7 -19 -15 -3 -9 0 -15 9 -15 8 0 15 -7 15 -16 0 -9 -7 -14 -16
-12 -18 4 -54 98 -54 144 0 30 -30 71 -43 57 -4 -3 -7 -1 -7 6 0 7 -7 10 -19
6 -28 -8 -49 4 -48 28 1 12 -2 32 -7 45 -5 17 -4 22 8 22 19 0 21 21 4 38 -10
10 -10 17 1 35 13 20 13 21 -2 8 -21 -17 -21 -9 -2 28 8 16 11 32 7 36 -4 4 3
4 15 1 19 -6 21 -3 18 20 -1 14 4 38 11 53 8 14 14 33 14 42 0 9 14 35 30 57
17 23 30 46 30 52 0 5 16 34 35 64 19 30 35 59 35 63 0 5 11 20 25 35 14 15
25 33 25 41 0 8 8 25 18 38 10 13 35 58 56 99 20 41 41 82 45 90 8 14 47 96
102 215 27 57 24 47 45 189 15 102 14 121 -5 325 -11 119 -25 230 -30 246 -5
17 -12 56 -16 87 -4 32 -11 60 -16 64 -6 3 -8 -10 -5 -33 3 -21 8 -74 11 -118
3 -44 15 -135 26 -202 11 -66 21 -161 24 -210 5 -89 -11 -219 -32 -258 -6 -11
-16 -45 -23 -75 -7 -30 -35 -98 -63 -150 -27 -52 -60 -117 -73 -145 -14 -27
-29 -57 -34 -65 -6 -8 -15 -25 -20 -38 -6 -13 -23 -42 -39 -65 -16 -24 -53
-87 -82 -141 -30 -54 -68 -123 -86 -155 -17 -31 -37 -67 -43 -81 -6 -14 -31
-64 -56 -112 -42 -83 -56 -120 -33 -88 9 13 10 13 6 0 -6 -25 -35 -23 -62 6
-14 15 -25 23 -25 18 0 -4 -5 -3 -12 4 -7 7 -30 11 -52 11 -23 -1 -33 -3 -23
-6 9 -2 17 -9 17 -14 0 -6 -8 -8 -17 -5 -10 3 -24 2 -32 -3 -10 -7 -5 -11 18
-16 17 -3 31 -11 31 -17 0 -12 -62 0 -71 14 -3 5 -18 6 -34 2 -16 -4 -30 -2
-34 4 -4 6 -21 12 -39 14 -30 2 -47 18 -19 18 9 0 8 3 -2 9 -11 7 -11 9 0 13
8 3 -6 11 -31 18 -53 15 -193 40 -198 35 -4 -4 143 -65 157 -65 19 0 22 -20 8
-52 -22 -51 -48 -126 -72 -208 -12 -41 -27 -76 -33 -78 -11 -3 -75 32 -122 68
-14 10 -66 47 -115 82 -127 89 -243 188 -249 212 -3 12 -19 29 -36 39 -16 10
-30 24 -30 30 0 7 -20 34 -45 61 -25 26 -45 51 -45 55 -1 3 -17 24 -37 46 -24
26 -31 30 -20 13 9 -15 17 -37 17 -48 0 -13 4 -18 11 -15 6 4 10 1 8 -6 -5
-43 2 -71 21 -76 11 -3 20 -12 20 -20 0 -19 27 -46 39 -39 5 3 11 -8 15 -24 3
-17 9 -30 13 -29 20 3 57 -3 45 -8 -18 -7 -4 -23 16 -17 14 5 14 3 -2 -10 -11
-9 -15 -16 -9 -16 15 0 163 -146 163 -160 0 -5 5 -10 11 -10 6 0 28 -15 49
-33 68 -59 169 -129 205 -141 37 -12 67 -44 63 -68 -2 -18 -8 -22 -28 -20 -14
2 -30 9 -35 16 -6 7 -21 17 -35 21 -25 8 -25 8 -6 -14 19 -21 19 -21 -1 -21
-11 0 -40 7 -63 15 -23 8 -57 15 -74 15 l-31 0 40 -18 c22 -10 91 -33 154 -51
106 -30 198 -72 246 -111 11 -9 31 -22 45 -29 44 -22 59 -54 71 -155 7 -53 10
-99 6 -102 -6 -6 -32 2 -192 59 -82 28 -173 45 -139 24 12 -6 19 -18 17 -24
-3 -7 0 -13 6 -13 6 0 11 5 11 10 0 6 9 10 20 10 11 0 20 -3 20 -6 0 -8 -45
-50 -58 -55 -14 -6 -25 -49 -13 -49 6 0 11 5 11 10 0 6 5 10 10 10 6 0 10 -30
10 -70 0 -40 -4 -70 -10 -70 -5 0 -10 11 -10 25 0 22 -4 25 -35 25 -19 0 -35
5 -35 10 0 6 7 10 16 10 17 0 14 22 -4 28 -7 2 -12 -3 -12 -12 0 -9 -4 -16
-10 -16 -5 0 -10 -16 -10 -35 l0 -35 -61 0 c-53 0 -60 -2 -55 -18 5 -15 1 -17
-34 -14 -25 3 -40 0 -40 -7 0 -8 211 -11 756 -11 l756 0 -5 23 c-3 12 -2 31 2
42 5 11 0 44 -10 77 -17 56 -17 58 1 58 27 0 34 36 15 77 -20 42 -23 60 -31
213 -8 158 -6 162 98 190 128 35 214 37 331 6 95 -25 157 -52 157 -68 0 -4 6
-8 14 -8 36 0 16 -52 -53 -142 -12 -14 -21 -30 -21 -35 0 -8 -25 -38 -89 -105
-59 -63 -12 -43 61 25 65 61 94 95 139 165 27 42 50 41 87 -5 17 -21 33 -35
36 -32 3 3 -10 26 -30 51 l-35 46 16 62 c9 34 25 85 35 114 29 80 40 181 40
373 0 203 -18 396 -50 533 -54 239 -70 309 -80 365 -21 121 -98 424 -160 635
-12 41 -28 100 -35 130 -7 30 -22 81 -33 113 -11 32 -26 83 -32 115 -12 60
-107 350 -120 367 -4 6 -10 22 -12 38 -11 58 24 28 175 -153 71 -85 158 -241
191 -343 11 -33 26 -7 26 44 0 90 -40 313 -80 439 -4 14 -18 59 -30 100 -13
41 -35 102 -50 135 -15 33 -35 78 -45 100 -10 22 -31 67 -46 101 -16 33 -29
64 -29 69 0 5 -8 18 -18 29 -17 19 -45 96 -38 103 5 5 78 -55 150 -125 74 -72
186 -215 186 -238 0 -8 3 -14 8 -14 10 0 24 -27 85 -162 30 -66 47 -85 47 -52
0 20 -28 130 -39 152 -23 47 -40 90 -46 112 -4 14 -17 36 -30 50 -12 14 -30
40 -39 58 -10 18 -24 36 -32 39 -7 3 -14 10 -14 17 0 17 -165 213 -218 259
-44 38 -113 114 -118 129 -3 10 -11 18 -18 18 -6 0 -20 15 -31 33 -10 17 -30
44 -44 59 -14 15 -42 45 -61 67 -19 22 -41 46 -48 53 -7 7 -21 22 -30 32 -9
11 -27 30 -39 42 l-21 23 -472 1 -471 0 15 -27z m1021 -213 c3 -5 2 -10 -4
-10 -5 0 -13 5 -16 10 -3 6 -2 10 4 10 5 0 13 -4 16 -10z m63 -105 c-3 -3 -9
2 -12 12 -6 14 -5 15 5 6 7 -7 10 -15 7 -18z m48 -63 c-9 -8 -26 10 -26 26 1
15 2 15 15 -2 8 -11 13 -21 11 -24z m144 -243 c0 -6 -4 -7 -10 -4 -5 3 -10 11
-10 16 0 6 5 7 10 4 6 -3 10 -11 10 -16z m47 -84 c9 -25 -4 -29 -17 -6 -7 15
-7 21 0 21 6 0 13 -7 17 -15z m32 -80 l0 -20 -9 20 c-5 11 -9 27 -9 35 -1 13
0 13 9 0 5 -8 9 -24 9 -35z m56 -115 c10 -25 25 -63 35 -85 9 -22 20 -53 24
-70 5 -25 2 -23 -19 15 -13 25 -24 52 -25 60 0 8 -11 35 -24 60 -13 25 -27 56
-31 70 -12 41 18 3 40 -50z m-281 -124 c14 -25 26 -52 26 -61 0 -9 8 -29 19
-43 10 -15 24 -45 31 -67 7 -22 20 -58 30 -80 26 -56 70 -178 70 -192 0 -7 6
-27 14 -45 8 -18 24 -71 37 -118 12 -47 27 -91 32 -97 5 -7 7 -13 3 -13 -3 0
-1 -12 5 -27 6 -16 15 -53 21 -83 5 -30 13 -59 18 -65 4 -5 13 -35 20 -65 7
-30 18 -73 25 -95 20 -63 48 -185 43 -191 -5 -4 -63 190 -98 326 -9 36 -29 98
-44 138 -14 40 -26 84 -26 98 0 14 -7 38 -15 54 -9 17 -13 30 -10 30 4 0 -1
10 -9 22 -9 12 -16 32 -16 45 0 12 -4 24 -9 27 -5 3 -12 23 -16 43 -4 21 -18
62 -31 91 -13 29 -24 57 -24 63 0 5 -13 38 -29 74 -16 35 -32 77 -36 94 -4 17
-11 31 -16 31 -5 0 -9 7 -9 15 0 9 -6 26 -14 38 -15 23 -32 97 -23 97 3 0 17
-20 31 -44z m363 -128 c-3 -8 -6 -5 -6 6 -1 11 2 17 5 13 3 -3 4 -12 1 -19z
m23 -58 c6 -11 7 -20 2 -20 -6 0 -12 9 -15 20 -3 11 -3 20 -1 20 2 0 8 -9 14
-20z m-311 -496 c12 -19 21 -39 21 -44 0 -5 16 -34 35 -64 19 -30 35 -58 35
-61 0 -3 26 -59 57 -123 31 -64 67 -146 80 -182 79 -216 99 -280 135 -420 37
-147 69 -294 89 -405 17 -99 39 -363 39 -472 0 -127 -28 -315 -58 -383 -11
-25 -22 -53 -26 -64 -6 -18 -7 -18 -34 0 -65 43 -163 84 -228 94 -45 8 -123 9
-222 5 -167 -8 -158 -12 -131 50 4 11 18 57 29 102 11 46 25 95 31 110 7 16
15 37 20 48 4 11 23 56 42 100 19 44 38 91 42 105 4 14 15 44 25 66 11 23 26
70 34 105 8 35 22 82 31 103 23 54 41 156 56 319 18 192 0 437 -46 652 -9 39
-24 115 -34 170 -11 55 -28 128 -39 163 -22 69 -15 81 17 26z m375 -759 c5
-22 4 -26 -4 -15 -5 8 -10 24 -10 34 0 26 6 18 14 -19z m-2384 -855 c0 -5 -2
-10 -4 -10 -3 0 -8 5 -11 10 -3 6 -1 10 4 10 6 0 11 -4 11 -10z m1190 -150 c0
-5 -9 -10 -19 -10 -11 0 -23 5 -26 10 -4 6 5 10 19 10 14 0 26 -4 26 -10z
m-10 -30 c0 -5 -10 -10 -22 -9 -22 0 -22 1 -3 9 11 5 21 9 23 9 1 1 2 -3 2 -9z
m267 -107 c-3 -10 -5 -2 -5 17 0 19 2 27 5 18 2 -10 2 -26 0 -35z m231 -458
l-1 -40 -7 40 c-6 35 -8 31 -10 -35 l-4 -75 -5 75 c-3 41 -3 77 2 78 4 2 7 13
8 25 2 40 17 -23 17 -68z m-80 44 c-11 -6 -18 -22 -18 -39 0 -24 -4 -30 -21
-30 -18 0 -21 5 -17 30 2 16 0 31 -6 33 -6 2 -1 2 11 1 12 -2 25 0 28 6 3 5
14 10 23 10 16 -1 16 -1 0 -11z m-788 -49 c0 -5 -4 -10 -10 -10 -5 0 -10 5
-10 10 0 6 5 10 10 10 6 0 10 -4 10 -10z m770 -65 c0 -28 -4 -35 -20 -35 -16
0 -20 7 -20 35 0 28 4 35 20 35 16 0 20 -7 20 -35z m8 -105 c-2 -5 -9 -6 -17
-1 -9 6 -11 16 -7 27 7 18 8 18 17 1 6 -10 9 -22 7 -27z m-931 -76 c-3 -3 -12
-4 -19 -1 -8 3 -5 6 6 6 11 1 17 -2 13 -5z"/>
<path d="M3865 4580 c17 -11 35 -20 41 -20 6 0 16 -6 23 -13 6 -8 35 -26 66
-41 30 -16 55 -33 55 -38 0 -5 5 -6 10 -3 6 4 8 10 5 15 -3 4 4 6 15 3 16 -4
18 -8 9 -19 -9 -11 -6 -16 15 -24 14 -5 26 -14 26 -19 0 -5 8 -12 18 -15 25
-8 196 -179 272 -272 35 -43 67 -81 70 -84 3 -3 14 -22 24 -42 10 -21 27 -45
37 -54 18 -16 19 -16 19 2 0 18 -34 83 -49 94 -4 3 -17 22 -30 43 -12 20 -26
37 -31 37 -5 0 -11 9 -15 20 -7 23 -277 300 -293 300 -11 0 -50 30 -91 71 -48
47 -101 67 -60 22 l24 -26 -27 19 c-15 11 -26 27 -25 39 2 18 -5 20 -68 23
l-70 2 30 -20z m80 0 c3 -5 1 -10 -4 -10 -6 0 -11 5 -11 10 0 6 2 10 4 10 3 0
8 -4 11 -10z"/>
<path d="M1420 4121 c0 -34 -4 -61 -10 -61 -5 0 -10 -7 -10 -15 0 -19 10 -19
38 1 15 11 22 25 22 50 0 19 -4 34 -10 34 -5 0 -10 9 -10 19 0 11 -4 23 -10
26 -6 4 -10 -17 -10 -54z"/>
<path d="M1951 4088 c-1 -16 4 -28 9 -28 12 0 12 8 0 35 -8 18 -9 17 -9 -7z"/>
<path d="M959 3888 c-2 -29 3 -163 7 -167 16 -16 30 91 19 146 -6 32 -24 46
-26 21z"/>
<path d="M1750 3809 c0 -11 5 -17 10 -14 6 3 10 13 10 21 0 8 -4 14 -10 14 -5
0 -10 -9 -10 -21z"/>
<path d="M1710 3803 c0 -5 5 -15 10 -23 8 -12 10 -11 10 8 0 12 -4 22 -10 22
-5 0 -10 -3 -10 -7z"/>
<path d="M1733 3718 c-10 -38 -10 -41 3 -24 12 17 20 66 11 66 -2 0 -8 -19
-14 -42z"/>
<path d="M983 3615 c0 -22 2 -30 4 -17 2 12 2 30 0 40 -3 9 -5 -1 -4 -23z"/>
<path d="M2251 3610 c-1 -20 5 -42 12 -49 10 -11 10 -14 0 -18 -7 -3 -13 -9
-13 -14 0 -6 4 -8 9 -4 5 3 13 -4 16 -16 5 -14 0 -28 -15 -44 l-22 -23 38 -11
c71 -20 91 -6 50 33 -14 13 -26 31 -26 41 0 9 -6 29 -14 43 -8 15 -19 43 -24
62 l-10 35 -1 -35z"/>
<path d="M3115 3590 c-3 -5 -1 -10 4 -10 6 0 11 5 11 10 0 6 -2 10 -4 10 -3 0
-8 -4 -11 -10z"/>
<path d="M1206 3488 c-11 -35 -14 -118 -5 -118 8 0 9 -23 4 -70 -5 -51 -4 -70
5 -70 8 0 11 -23 9 -77 -3 -77 5 -123 20 -123 9 0 4 127 -9 240 -5 46 -5 81 1
92 14 26 7 130 -8 136 -7 2 -15 -2 -17 -10z"/>
<path d="M988 3453 c-5 -28 12 -167 23 -177 5 -6 9 -27 9 -48 0 -20 4 -47 9
-60 5 -13 17 -66 26 -118 17 -99 42 -180 55 -180 16 0 17 27 3 100 -8 41 -18
98 -23 125 -5 28 -15 73 -24 102 -8 28 -16 80 -17 115 -3 71 -15 114 -40 141
-17 18 -17 18 -21 0z m23 -90 c-9 -15 -10 -12 -10 17 0 29 1 32 10 18 7 -12 7
-24 0 -35z"/>
<path d="M3165 3240 c-3 -11 -13 -20 -21 -20 -8 0 -14 -10 -14 -26 0 -18 4
-25 14 -21 8 3 22 -3 32 -14 20 -22 44 -10 44 22 0 30 16 30 48 -3 l32 -30 0
46 c0 45 -1 46 -19 34 -12 -8 -35 -12 -56 -10 -30 4 -36 8 -32 23 7 26 -20 25
-28 -1z"/>
<path d="M2075 3150 c-4 -6 -14 -10 -23 -9 -10 1 -42 -9 -72 -23 -30 -14 -67
-28 -81 -31 -14 -4 -42 -17 -61 -31 -20 -13 -44 -26 -54 -28 -10 -2 -24 -13
-30 -26 -6 -12 -13 -19 -17 -16 -3 3 -30 -10 -61 -30 -37 -24 -61 -48 -74 -74
-19 -39 -19 -39 0 -34 14 3 21 -2 25 -17 3 -11 9 -21 13 -21 10 0 7 26 -3 36
-12 12 -8 22 26 59 43 48 183 141 227 150 19 4 43 17 52 28 15 20 26 22 96 20
78 -2 80 -2 78 21 0 14 -3 22 -5 20 -2 -2 -10 1 -17 7 -8 7 -14 7 -19 -1z"/>
<path d="M1497 3110 c-14 -11 -30 -20 -35 -20 -5 0 -12 -9 -15 -21 -5 -19 -4
-20 12 -5 10 9 21 16 25 16 11 0 50 39 44 45 -3 3 -16 -4 -31 -15z"/>
<path d="M2880 3051 c0 -6 5 -13 10 -16 6 -3 10 1 10 9 0 9 -4 16 -10 16 -5 0
-10 -4 -10 -9z"/>
<path d="M1485 3020 c3 -5 8 -10 11 -10 2 0 4 5 4 10 0 6 -5 10 -11 10 -5 0
-7 -4 -4 -10z"/>
<path d="M1231 2928 c-1 -32 3 -58 8 -58 5 0 6 21 4 48 -7 70 -11 74 -12 10z"/>
<path d="M1759 2928 c-11 -51 -6 -78 22 -104 35 -33 45 -26 51 34 3 40 2 42
-24 42 -18 0 -28 5 -28 15 0 12 -18 23 -21 13z"/>
<path d="M2867 2896 c-4 -10 -7 -25 -6 -34 0 -11 4 -9 10 7 5 13 8 29 6 35 -2
5 -6 2 -10 -8z"/>
<path d="M1127 2793 c-12 -12 -7 -50 8 -63 21 -17 47 -5 43 21 -3 23 -40 54
-51 42z"/>
<path d="M1251 2741 c-1 -27 2 -32 11 -23 8 8 8 17 0 34 -10 22 -11 21 -11
-11z"/>
<path d="M597 2729 c-5 -20 -5 -20 16 -3 12 11 24 20 26 21 2 2 -5 3 -16 3
-13 0 -23 -8 -26 -21z"/>
<path d="M1310 2424 c0 -8 5 -12 10 -9 6 3 10 10 10 16 0 5 -4 9 -10 9 -5 0
-10 -7 -10 -16z"/>
<path d="M3127 2333 l-17 -38 20 24 c11 13 20 29 20 37 0 22 -5 17 -23 -23z"/>
<path d="M1361 2184 c0 -11 3 -14 6 -6 3 7 2 16 -1 19 -3 4 -6 -2 -5 -13z"/>
<path d="M367 2044 c-13 -13 -8 -24 16 -34 12 -6 30 -15 39 -22 9 -7 20 -9 23
-6 9 9 -32 48 -49 48 -8 0 -16 5 -18 11 -2 5 -7 7 -11 3z"/>
<path d="M268 1993 c6 -2 12 -11 12 -19 0 -8 11 -20 25 -26 19 -8 22 -14 13
-20 -9 -5 -3 -8 15 -8 33 0 34 8 2 39 -14 13 -25 27 -25 32 0 5 -12 9 -27 8
-16 0 -22 -3 -15 -6z"/>
<path d="M500 1990 c0 -5 5 -10 10 -10 6 0 10 5 10 10 0 6 -4 10 -10 10 -5 0
-10 -4 -10 -10z"/>
<path d="M520 1959 c0 -4 -12 -9 -26 -11 l-25 -3 21 -22 c22 -24 74 -31 86
-12 4 8 9 7 15 -2 14 -22 11 -27 -16 -21 -14 2 -25 0 -25 -4 0 -13 71 -79 100
-94 14 -7 29 -19 33 -26 4 -8 15 -14 23 -14 9 0 22 -7 30 -15 8 -8 21 -12 29
-9 8 3 27 -1 42 -10 35 -19 134 -39 144 -29 4 5 10 32 14 61 6 45 5 52 -10 52
-9 0 -19 -9 -22 -20 -6 -22 -11 -24 -33 -10 -9 6 -17 5 -23 -3 -5 -7 -6 -4 -2
9 6 24 -8 38 -47 48 -16 3 -28 12 -28 20 0 8 -11 12 -32 11 -40 -2 -69 5 -63
15 3 4 -7 11 -23 15 -15 3 -36 15 -47 24 -11 10 -33 21 -48 25 -15 4 -25 10
-23 15 3 5 -5 11 -19 13 -14 3 -25 2 -25 -3z"/>
<path d="M3090 1935 c0 -8 2 -15 4 -15 2 0 6 7 10 15 3 8 1 15 -4 15 -6 0 -10
-7 -10 -15z"/>
<path d="M380 1890 c0 -26 -5 -40 -13 -40 -9 0 -12 -11 -9 -34 3 -27 -1 -39
-22 -57 -14 -12 -26 -33 -26 -46 0 -13 -5 -22 -12 -20 -7 1 -12 -4 -13 -11 0
-7 -7 -17 -15 -22 -13 -9 -13 -11 0 -20 12 -8 10 -10 -10 -11 -24 -1 -24 -1 4
-9 16 -5 33 -7 38 -4 4 3 8 0 8 -5 0 -6 -17 -11 -37 -12 -21 0 -31 -3 -23 -6
8 -2 25 -9 37 -15 13 -7 52 -8 99 -5 42 4 107 2 145 -3 55 -8 77 -7 104 4 19
8 35 20 35 25 0 6 11 11 25 11 14 0 25 -4 25 -10 0 -13 52 -60 67 -60 7 0 13
-9 13 -19 0 -20 -25 -147 -36 -186 -4 -13 -3 -17 4 -10 5 6 15 39 21 75 16 88
30 120 52 120 10 0 21 5 24 10 11 18 -6 50 -25 50 -13 0 -26 15 -40 45 -19 41
-28 48 -118 92 -53 25 -112 61 -130 80 -18 18 -37 33 -42 33 -5 0 -16 14 -25
30 -10 20 -23 30 -38 30 -12 0 -28 9 -35 20 -19 31 -32 24 -32 -20z"/>
<path d="M925 1830 c-3 -5 -1 -10 4 -10 6 0 11 5 11 10 0 6 -2 10 -4 10 -3 0
-8 -4 -11 -10z"/>
<path d="M1000 1804 c0 -8 5 -12 10 -9 6 4 8 11 5 16 -9 14 -15 11 -15 -7z"/>
<path d="M1002 1750 c-3 -33 12 -40 26 -12 11 20 5 42 -12 42 -6 0 -13 -13
-14 -30z"/>
<path d="M131 1734 c0 -11 3 -14 6 -6 3 7 2 16 -1 19 -3 4 -6 -2 -5 -13z"/>
<path d="M120 1660 c0 -5 5 -10 10 -10 6 0 10 5 10 10 0 6 -4 10 -10 10 -5 0
-10 -4 -10 -10z"/>
<path d="M150 1659 c0 -5 5 -7 10 -4 6 3 10 8 10 11 0 2 -4 4 -10 4 -5 0 -10
-5 -10 -11z"/>
<path d="M162 1525 c-9 -19 -9 -25 1 -25 8 0 7 -4 -3 -10 -8 -5 -11 -13 -6
-17 4 -4 13 0 20 10 7 9 22 17 32 17 35 0 -11 -33 -50 -35 -20 -1 -36 -6 -37
-11 -1 -18 32 -15 105 10 41 14 77 26 80 26 14 0 4 -43 -24 -102 -45 -94 -56
-110 -90 -139 -17 -14 -34 -40 -39 -56 -9 -31 -9 -31 18 -17 14 8 31 14 37 14
6 0 38 25 71 55 34 30 67 55 73 55 7 0 32 -20 56 -45 46 -49 63 -58 40 -22
-21 34 -22 213 -1 237 15 17 17 16 47 -10 52 -48 66 -59 97 -74 31 -17 67 -23
44 -8 -31 19 -83 108 -83 141 l0 34 -73 -8 c-95 -11 -256 -12 -283 -2 -16 6
-23 2 -32 -18z m84 -272 c-10 -10 -19 5 -10 18 6 11 8 11 12 0 2 -7 1 -15 -2
-18z m1 -19 c-3 -3 -12 -4 -19 -1 -8 3 -5 6 6 6 11 1 17 -2 13 -5z"/>
<path d="M1736 1465 c4 -8 8 -15 10 -15 2 0 4 7 4 15 0 8 -4 15 -10 15 -5 0
-7 -7 -4 -15z"/>
<path d="M762 1290 c0 -14 2 -19 5 -12 2 6 2 18 0 25 -3 6 -5 1 -5 -13z"/>
<path d="M3340 1181 c-10 -21 -4 -51 11 -51 5 0 9 16 9 35 0 40 -5 43 -20 16z"/>
<path d="M95 1150 c-3 -6 1 -7 9 -4 18 7 21 14 7 14 -6 0 -13 -4 -16 -10z"/>
<path d="M3136 1044 c-20 -19 -20 -24 -2 -24 7 0 16 9 19 20 6 24 3 25 -17 4z"/>
<path d="M3631 904 c0 -11 3 -14 6 -6 3 7 2 16 -1 19 -3 4 -6 -2 -5 -13z"/>
<path d="M2226 772 c-3 -6 -1 -14 5 -17 15 -10 25 3 12 16 -7 7 -13 7 -17 1z"/>
<path d="M2290 730 c0 -12 40 -34 48 -26 3 4 -3 13 -14 21 -22 17 -34 19 -34
5z"/>
<path d="M2365 720 c3 -5 11 -10 16 -10 6 0 7 5 4 10 -3 6 -11 10 -16 10 -6 0
-7 -4 -4 -10z"/>
<path d="M704 473 c-3 -10 -12 -34 -19 -53 -30 -82 -64 -242 -71 -327 l-7 -93
40 0 40 0 -5 103 c-2 56 1 134 8 172 6 39 13 93 14 122 1 28 8 58 15 67 8 10
9 16 1 21 -5 3 -13 -2 -16 -12z"/>
<path d="M2144 425 c11 -8 25 -15 32 -15 6 0 32 -12 58 -26 25 -14 52 -23 58
-21 8 3 6 6 -4 6 -10 1 -18 5 -18 10 0 9 -114 61 -133 61 -7 0 -3 -7 7 -15z"/>
<path d="M569 245 c-9 -22 -19 -62 -23 -90 -6 -49 -5 -48 20 24 27 80 29 133
3 66z"/>
<path d="M528 85 c-4 -11 -11 -35 -16 -52 -6 -18 -7 -33 -3 -33 11 0 34 75 29
91 -3 9 -6 7 -10 -6z"/>
<path d="M1552 15 c-11 -13 -9 -15 12 -15 30 0 42 15 20 24 -19 7 -16 8 -32
-9z"/>
</g>
</svg>
